<svg width="30" height="30" viewBox="0 0 30 30" fill="none" xmlns="http://www.w3.org/2000/svg">
<path opacity="0.995" fill-rule="evenodd" clip-rule="evenodd" d="M12.5543 2.57519C14.0819 2.56515 15.6093 2.57519 17.1366 2.60533C17.6782 2.87491 17.8691 3.30682 17.7094 3.90108C17.5989 4.17229 17.4079 4.36314 17.1366 4.47363C16.6949 4.50374 16.2528 4.51379 15.8101 4.50376C15.8101 4.82519 15.8101 5.14662 15.8101 5.46805C21.3578 6.04415 25.3271 8.83654 27.7183 13.8453C28.4175 15.4817 28.7894 17.1894 28.8337 18.968C19.5082 18.968 10.1827 18.968 0.857147 18.968C1.15438 13.8002 3.50586 9.89279 7.91159 7.24595C9.77028 6.21398 11.76 5.62131 13.8807 5.46805C13.8807 5.14662 13.8807 4.82519 13.8807 4.50376C13.4381 4.51379 12.996 4.50374 12.5543 4.47363C12.0127 4.20404 11.8217 3.77213 11.9815 3.17787C12.1034 2.90546 12.2943 2.70457 12.5543 2.57519Z" fill="#FFD335"/>
<path opacity="0.997" fill-rule="evenodd" clip-rule="evenodd" d="M30 21.1964C30 21.4464 30 21.6964 30 21.9464C29.849 22.2159 29.6147 22.4138 29.2969 22.5402C28.8964 22.5508 28.498 22.5821 28.1016 22.6339C27.5576 23.8239 27.0069 25.0114 26.4492 26.1964C26.313 26.3593 26.1372 26.4738 25.9219 26.5402C16.6406 26.5818 13.3594 26.5818 4.07812 26.5402C3.76172 26.4256 3.53906 26.2277 3.41016 25.9464C2.91797 24.8422 2.42578 23.7381 1.93359 22.6339C1.52921 22.5833 1.11906 22.5521 0.703125 22.5402C0.385315 22.4138 0.15094 22.2159 0 21.9464C0 21.6964 0 21.4464 0 21.1964C0.15094 20.927 0.385315 20.7291 0.703125 20.6027C12.2344 20.561 17.7656 20.561 29.2969 20.6027C29.6147 20.7291 29.849 20.927 30 21.1964Z" fill="#FFD335"/>
</svg>
